<svg xmlns="http://www.w3.org/2000/svg" width="294.95" height="35" viewBox="0 0 294.95 35"><rect class="svg__rect" x="0" y="0" width="97.71000000000001" height="35" fill="#31C4F3"/><rect class="svg__rect" x="95.71000000000001" y="0" width="199.23999999999998" height="35" fill="#389AD5"/><path class="svg__text" d="M17.33 22L14.22 22L14.22 13.47L17.14 13.47Q18.59 13.47 19.34 14.05Q20.10 14.63 20.10 15.78L20.10 15.78Q20.10 16.36 19.78 16.83Q19.47 17.30 18.86 17.56L18.86 17.56Q19.55 17.75 19.93 18.26Q20.31 18.78 20.31 19.51L20.31 19.51Q20.31 20.71 19.53 21.36Q18.76 22 17.33 22L17.33 22ZM15.70 18.15L15.70 20.82L17.35 20.82Q18.04 20.82 18.44 20.47Q18.83 20.13 18.83 19.51L18.83 19.51Q18.83 18.18 17.47 18.15L17.47 18.15L15.70 18.15ZM15.70 14.66L15.70 17.06L17.15 17.06Q17.84 17.06 18.23 16.75Q18.62 16.43 18.62 15.86L18.62 15.86Q18.62 15.23 18.26 14.95Q17.90 14.66 17.14 14.66L17.14 14.66L15.70 14.66ZM24.64 19.16L24.64 19.16L24.64 13.47L26.12 13.47L26.12 19.18Q26.12 20.03 26.55 20.48Q26.98 20.93 27.83 20.93L27.83 20.93Q29.54 20.93 29.54 19.13L29.54 19.13L29.54 13.47L31.02 13.47L31.02 19.17Q31.02 20.53 30.15 21.32Q29.28 22.12 27.83 22.12L27.83 22.12Q26.36 22.12 25.50 21.33Q24.64 20.55 24.64 19.16ZM37.15 22L35.67 22L35.67 13.47L37.15 13.47L37.15 22ZM47.32 22L41.96 22L41.96 13.47L43.44 13.47L43.44 20.82L47.32 20.82L47.32 22ZM53.12 14.66L50.49 14.66L50.49 13.47L57.25 13.47L57.25 14.66L54.59 14.66L54.59 22L53.12 22L53.12 14.66ZM70.10 22L66.99 22L66.99 13.47L69.91 13.47Q71.36 13.47 72.11 14.05Q72.87 14.63 72.87 15.78L72.87 15.78Q72.87 16.36 72.55 16.83Q72.24 17.30 71.63 17.56L71.63 17.56Q72.32 17.75 72.70 18.26Q73.07 18.78 73.07 19.51L73.07 19.51Q73.07 20.71 72.30 21.36Q71.53 22 70.10 22L70.10 22ZM68.47 18.15L68.47 20.82L70.12 20.82Q70.81 20.82 71.21 20.47Q71.60 20.13 71.60 19.51L71.60 19.51Q71.60 18.18 70.24 18.15L70.24 18.15L68.47 18.15ZM68.47 14.66L68.47 17.06L69.92 17.06Q70.61 17.06 71.00 16.75Q71.39 16.43 71.39 15.86L71.39 15.86Q71.39 15.23 71.03 14.95Q70.67 14.66 69.91 14.66L69.91 14.66L68.47 14.66ZM79.58 18.86L76.72 13.47L78.37 13.47L80.33 17.51L82.29 13.47L83.93 13.47L81.07 18.86L81.07 22L79.58 22L79.58 18.86Z" fill="#FFFFFF"/><path class="svg__text" d="M113.87 22L109.90 22L109.90 13.60L113.87 13.60Q115.25 13.60 116.32 14.12Q117.39 14.63 117.98 15.58Q118.56 16.53 118.56 17.80L118.56 17.80Q118.56 19.07 117.98 20.02Q117.39 20.97 116.32 21.48Q115.25 22 113.87 22L113.87 22ZM112.28 15.50L112.28 20.10L113.78 20.10Q114.85 20.10 115.51 19.49Q116.16 18.88 116.16 17.80L116.16 17.80Q116.16 16.72 115.51 16.11Q114.85 15.50 113.78 15.50L113.78 15.50L112.28 15.50ZM125.67 22L123.29 22L123.29 13.60L125.67 13.60L125.67 22ZM130.42 17.80L130.42 17.80Q130.42 16.54 131.02 15.54Q131.61 14.55 132.68 13.99Q133.75 13.43 135.09 13.43L135.09 13.43Q136.27 13.43 137.21 13.83Q138.15 14.22 138.77 14.97L138.77 14.97L137.26 16.33Q136.41 15.40 135.23 15.40L135.23 15.40Q135.22 15.40 135.22 15.40L135.22 15.40Q134.14 15.40 133.48 16.06Q132.81 16.71 132.81 17.80L132.81 17.80Q132.81 18.50 133.12 19.04Q133.42 19.59 133.96 19.89Q134.50 20.20 135.19 20.20L135.19 20.20Q135.88 20.20 136.48 19.93L136.48 19.93L136.48 17.62L138.57 17.62L138.57 21.10Q137.85 21.61 136.92 21.89Q135.98 22.17 135.05 22.17L135.05 22.17Q133.73 22.17 132.67 21.61Q131.61 21.05 131.02 20.05Q130.42 19.06 130.42 17.80ZM144.98 22L142.56 22L146.27 13.60L148.61 13.60L152.33 22L149.86 22L149.20 20.37L145.65 20.37L144.98 22ZM147.42 15.93L146.34 18.61L148.50 18.61L147.42 15.93ZM158.81 22L156.48 22L156.48 13.60L158.44 13.60L162.15 18.07L162.15 13.60L164.47 13.60L164.47 22L162.52 22L158.81 17.52L158.81 22ZM171.43 15.48L168.84 15.48L168.84 13.60L176.37 13.60L176.37 15.48L173.80 15.48L173.80 22L171.43 22L171.43 15.48ZM183.12 22L180.74 22L180.74 13.60L183.12 13.60L183.12 16.76L186.36 16.76L186.36 13.60L188.73 13.60L188.73 22L186.36 22L186.36 18.72L183.12 18.72L183.12 22ZM203.24 22L200.86 22L200.86 13.60L204.71 13.60Q205.85 13.60 206.69 13.98Q207.53 14.35 207.98 15.06Q208.44 15.76 208.44 16.71L208.44 16.71Q208.44 17.66 207.98 18.35Q207.53 19.05 206.69 19.42Q205.85 19.80 204.71 19.80L204.71 19.80L203.24 19.80L203.24 22ZM203.24 15.47L203.24 17.93L204.56 17.93Q205.29 17.93 205.67 17.61Q206.04 17.29 206.04 16.71L206.04 16.71Q206.04 16.12 205.67 15.80Q205.29 15.47 204.56 15.47L204.56 15.47L203.24 15.47ZM215.57 22L213.19 22L213.19 13.60L217.04 13.60Q218.18 13.60 219.02 13.98Q219.85 14.35 220.31 15.06Q220.77 15.76 220.77 16.71L220.77 16.71Q220.77 17.62 220.34 18.30Q219.91 18.98 219.12 19.36L219.12 19.36L220.93 22L218.39 22L216.87 19.77L215.57 19.77L215.57 22ZM215.57 15.47L215.57 17.93L216.89 17.93Q217.62 17.93 217.99 17.61Q218.37 17.29 218.37 16.71L218.37 16.71Q218.37 16.12 217.99 15.79Q217.62 15.47 216.89 15.47L216.89 15.47L215.57 15.47ZM226.97 22L224.55 22L228.26 13.60L230.60 13.60L234.32 22L231.85 22L231.19 20.37L227.64 20.37L226.97 22ZM229.41 15.93L228.33 18.61L230.49 18.61L229.41 15.93ZM240.83 22L238.47 22L238.47 13.60L240.83 13.60L240.83 17.09L244.08 13.60L246.69 13.60L243.26 17.32L246.87 22L244.11 22L241.71 18.95L240.83 19.90L240.83 22ZM252.40 22L249.97 22L253.68 13.60L256.02 13.60L259.74 22L257.27 22L256.61 20.37L253.06 20.37L252.40 22ZM254.84 15.93L253.75 18.61L255.91 18.61L254.84 15.93ZM263.31 21.24L263.31 21.24L264.09 19.49Q264.65 19.86 265.39 20.09Q266.14 20.32 266.86 20.32L266.86 20.32Q268.22 20.32 268.23 19.64L268.23 19.64Q268.23 19.28 267.84 19.11Q267.45 18.93 266.58 18.74L266.58 18.74Q265.63 18.53 265.00 18.30Q264.36 18.06 263.91 17.55Q263.45 17.03 263.45 16.16L263.45 16.16Q263.45 15.39 263.87 14.77Q264.29 14.15 265.13 13.79Q265.96 13.43 267.17 13.43L267.17 13.43Q268.00 13.43 268.80 13.62Q269.61 13.80 270.22 14.17L270.22 14.17L269.49 15.93Q268.29 15.28 267.16 15.28L267.16 15.28Q266.45 15.28 266.13 15.49Q265.80 15.70 265.80 16.04L265.80 16.04Q265.80 16.37 266.19 16.54Q266.57 16.71 267.42 16.89L267.42 16.89Q268.38 17.10 269.01 17.33Q269.64 17.56 270.10 18.07Q270.57 18.58 270.57 19.46L270.57 19.46Q270.57 20.21 270.15 20.83Q269.73 21.44 268.89 21.80Q268.05 22.17 266.85 22.17L266.85 22.17Q265.83 22.17 264.87 21.92Q263.91 21.67 263.31 21.24ZM277.52 22L275.14 22L275.14 13.60L277.52 13.60L277.52 16.76L280.76 16.76L280.76 13.60L283.14 13.60L283.14 22L280.76 22L280.76 18.72L277.52 18.72L277.52 22Z" fill="#FFFFFF" x="108.71000000000001"/></svg>