<svg xmlns="http://www.w3.org/2000/svg" width="180.67" height="35" viewBox="0 0 180.67 35"><rect class="svg__rect" x="0" y="0" width="116.66" height="35" fill="#EA4560"/><rect class="svg__rect" x="114.66" y="0" width="66.00999999999999" height="35" fill="#C13B3A"/><path class="svg__text" d="M13.95 18.19L13.95 18.19L13.95 17.39Q13.95 16.19 14.38 15.27Q14.80 14.35 15.60 13.85Q16.40 13.35 17.45 13.35L17.45 13.35Q18.86 13.35 19.73 14.12Q20.59 14.89 20.73 16.29L20.73 16.29L19.25 16.29Q19.14 15.37 18.71 14.96Q18.28 14.55 17.45 14.55L17.45 14.55Q16.48 14.55 15.97 15.26Q15.45 15.96 15.44 17.33L15.44 17.33L15.44 18.09Q15.44 19.47 15.93 20.20Q16.43 20.92 17.38 20.92L17.38 20.92Q18.25 20.92 18.69 20.53Q19.13 20.14 19.25 19.22L19.25 19.22L20.73 19.22Q20.60 20.59 19.72 21.35Q18.84 22.12 17.38 22.12L17.38 22.12Q16.36 22.12 15.59 21.63Q14.81 21.15 14.39 20.26Q13.97 19.37 13.95 18.19ZM24.77 18.00L24.77 18.00L24.77 17.52Q24.77 16.28 25.21 15.32Q25.65 14.37 26.46 13.86Q27.27 13.35 28.31 13.35Q29.35 13.35 30.16 13.85Q30.96 14.35 31.40 15.29Q31.84 16.23 31.85 17.48L31.85 17.48L31.85 17.96Q31.85 19.21 31.41 20.16Q30.98 21.10 30.18 21.61Q29.37 22.12 28.32 22.12L28.32 22.12Q27.28 22.12 26.47 21.61Q25.66 21.10 25.22 20.17Q24.78 19.23 24.77 18.00ZM26.25 17.46L26.25 17.96Q26.25 19.36 26.80 20.13Q27.35 20.90 28.32 20.90L28.32 20.90Q29.31 20.90 29.84 20.15Q30.37 19.40 30.37 17.96L30.37 17.96L30.37 17.51Q30.37 16.09 29.83 15.34Q29.29 14.58 28.31 14.58L28.31 14.58Q27.35 14.58 26.81 15.33Q26.26 16.09 26.25 17.46L26.25 17.46ZM37.80 22L36.31 22L36.31 13.47L39.58 13.47Q41.01 13.47 41.85 14.21Q42.69 14.96 42.69 16.18L42.69 16.18Q42.69 17.44 41.86 18.13Q41.04 18.83 39.56 18.83L39.56 18.83L37.80 18.83L37.80 22ZM37.80 14.66L37.80 17.64L39.58 17.64Q40.37 17.64 40.78 17.27Q41.20 16.90 41.20 16.19L41.20 16.19Q41.20 15.50 40.78 15.09Q40.36 14.68 39.62 14.66L39.62 14.66L37.80 14.66ZM49.01 18.86L46.14 13.47L47.79 13.47L49.75 17.51L51.72 13.47L53.36 13.47L50.50 18.86L50.50 22L49.01 22L49.01 18.86ZM58.75 22L57.27 22L57.27 13.47L60.27 13.47Q61.75 13.47 62.55 14.13Q63.35 14.79 63.35 16.05L63.35 16.05Q63.35 16.90 62.94 17.48Q62.53 18.06 61.79 18.37L61.79 18.37L63.71 21.92L63.71 22L62.12 22L60.41 18.71L58.75 18.71L58.75 22ZM58.75 14.66L58.75 17.52L60.28 17.52Q61.03 17.52 61.45 17.15Q61.87 16.77 61.87 16.11L61.87 16.11Q61.87 15.43 61.48 15.05Q61.09 14.68 60.32 14.66L60.32 14.66L58.75 14.66ZM69.31 22L67.84 22L67.84 13.47L69.31 13.47L69.31 22ZM73.88 18.13L73.88 18.13L73.88 17.46Q73.88 15.53 74.80 14.44Q75.73 13.35 77.39 13.35L77.39 13.35Q78.81 13.35 79.65 14.05Q80.49 14.76 80.66 16.08L80.66 16.08L79.20 16.08Q78.96 14.54 77.42 14.54L77.42 14.54Q76.42 14.54 75.90 15.26Q75.38 15.98 75.37 17.37L75.37 17.37L75.37 18.02Q75.37 19.40 75.95 20.17Q76.53 20.93 77.57 20.93L77.57 20.93Q78.71 20.93 79.19 20.42L79.19 20.42L79.19 18.75L77.43 18.75L77.43 17.62L80.66 17.62L80.66 20.89Q80.20 21.50 79.38 21.81Q78.56 22.12 77.52 22.12L77.52 22.12Q76.44 22.12 75.62 21.63Q74.79 21.14 74.34 20.24Q73.89 19.33 73.88 18.13ZM86.76 22L85.28 22L85.28 13.47L86.76 13.47L86.76 17.02L90.58 17.02L90.58 13.47L92.05 13.47L92.05 22L90.58 22L90.58 18.21L86.76 18.21L86.76 22ZM98.47 14.66L95.84 14.66L95.84 13.47L102.61 13.47L102.61 14.66L99.95 14.66L99.95 22L98.47 22L98.47 14.66Z" fill="#FFFFFF"/><path class="svg__text" d="M129.70 16.17L127.94 15.19Q128.43 14.37 129.32 13.90Q130.21 13.43 131.42 13.43L131.42 13.43Q132.38 13.43 133.12 13.74Q133.85 14.05 134.27 14.64Q134.68 15.22 134.68 15.99L134.68 15.99Q134.68 16.67 134.39 17.28Q134.09 17.89 133.25 18.65L133.25 18.65L131.67 20.11L134.91 20.11L134.91 22L128.37 22L128.37 20.51L131.51 17.57Q131.97 17.14 132.13 16.83Q132.28 16.53 132.28 16.22L132.28 16.22Q132.28 15.81 132.01 15.58Q131.73 15.35 131.20 15.35L131.20 15.35Q130.73 15.35 130.34 15.56Q129.96 15.77 129.70 16.17L129.70 16.17ZM139.09 17.80L139.09 17.80Q139.09 16.45 139.56 15.46Q140.03 14.46 140.87 13.95Q141.72 13.43 142.79 13.43L142.79 13.43Q143.86 13.43 144.70 13.95Q145.54 14.46 146.02 15.46Q146.49 16.45 146.49 17.80L146.49 17.80Q146.49 19.15 146.02 20.15Q145.54 21.14 144.70 21.65Q143.87 22.17 142.79 22.17L142.79 22.17Q141.72 22.17 140.87 21.65Q140.03 21.14 139.56 20.15Q139.09 19.16 139.09 17.80ZM141.47 17.80L141.47 17.80Q141.47 19.06 141.83 19.64Q142.18 20.22 142.79 20.22L142.79 20.22Q143.40 20.22 143.75 19.64Q144.11 19.06 144.11 17.80L144.11 17.80Q144.11 16.54 143.75 15.96Q143.40 15.38 142.79 15.38L142.79 15.38Q142.18 15.38 141.83 15.96Q141.47 16.54 141.47 17.80ZM152.07 16.17L150.31 15.19Q150.80 14.37 151.69 13.90Q152.58 13.43 153.79 13.43L153.79 13.43Q154.75 13.43 155.49 13.74Q156.22 14.05 156.64 14.64Q157.05 15.22 157.05 15.99L157.05 15.99Q157.05 16.67 156.76 17.28Q156.46 17.89 155.63 18.65L155.63 18.65L154.04 20.11L157.28 20.11L157.28 22L150.74 22L150.74 20.51L153.88 17.57Q154.34 17.14 154.50 16.83Q154.65 16.53 154.65 16.22L154.65 16.22Q154.65 15.81 154.38 15.58Q154.10 15.35 153.57 15.35L153.57 15.35Q153.11 15.35 152.72 15.56Q152.33 15.77 152.07 16.17L152.07 16.17ZM162.74 16.17L160.98 15.19Q161.47 14.37 162.36 13.90Q163.25 13.43 164.46 13.43L164.46 13.43Q165.42 13.43 166.16 13.74Q166.89 14.05 167.31 14.64Q167.72 15.22 167.72 15.99L167.72 15.99Q167.72 16.67 167.43 17.28Q167.13 17.89 166.30 18.65L166.30 18.65L164.71 20.11L167.95 20.11L167.95 22L161.41 22L161.41 20.51L164.55 17.57Q165.01 17.14 165.17 16.83Q165.32 16.53 165.32 16.22L165.32 16.22Q165.32 15.81 165.05 15.58Q164.77 15.35 164.24 15.35L164.24 15.35Q163.78 15.35 163.39 15.56Q163.00 15.77 162.74 16.17L162.74 16.17Z" fill="#FFFFFF" x="127.66"/></svg>